<svg xmlns="http://www.w3.org/2000/svg" id="Camada_1" data-name="Camada 1" viewBox="0 0 294.91 247.36"><defs><style>.cls-1,.cls-3{fill:none;}.cls-1{stroke:#fe120d;}.cls-1,.cls-3,.cls-4{stroke-linecap:round;stroke-linejoin:round;}.cls-2,.cls-4,.cls-5{fill:#ff0001;}.cls-3,.cls-4,.cls-5{stroke:#ff0001;}.cls-5{stroke-miterlimit:10;}</style></defs><title>motoboy</title><path class="cls-1" d="M741.9,493.16" transform="translate(-535.54 -262.46)"></path><path class="cls-1" d="M791.9,493.16" transform="translate(-535.54 -262.46)"></path><path class="cls-1" d="M605.2,493.16" transform="translate(-535.54 -262.46)"></path><path class="cls-1" d="M647.26,493.16" transform="translate(-535.54 -262.46)"></path><path class="cls-1" d="M741.9,493.16" transform="translate(-535.54 -262.46)"></path><path class="cls-1" d="M605.2,493.16" transform="translate(-535.54 -262.46)"></path><path class="cls-2" d="M632.51,469.05c.15-1.4.23-2.82.25-4.26v-.5c0-.78,0-1.56-.06-2.33a45.36,45.36,0,0,0-15.45-31.89l-4.88,8.54a35.78,35.78,0,0,1,10.75,23.84c0,.61,0,1.22,0,1.84s0,1,0,1.49" transform="translate(-535.54 -262.46)"></path><path class="cls-2" d="M587.22,509.83a45.56,45.56,0,0,0,42.9-30.22" transform="translate(-535.54 -262.46)"></path><path class="cls-2" d="M620.24,478.52a36,36,0,1,1-11.85-43.28l4.76-8.39a45.54,45.54,0,1,0-25.93,83" transform="translate(-535.54 -262.46)"></path><path class="cls-2" d="M784.92,509.83a45.54,45.54,0,1,0-17.5-87.6l4.32,8.61a36,36,0,1,1-7.16,3.81L760.26,426a45.54,45.54,0,0,0,24.66,83.83" transform="translate(-535.54 -262.46)"></path><path class="cls-3" d="M641.1,291.64s-3.05-13.17,3.65-22.82,23.3-4.47,23.3-4.47,25.17,8,19.41,40.71l-9.06,7.53Z" transform="translate(-535.54 -262.46)"></path><path class="cls-3" d="M686.74,284.52s-12.46-7-21.4-6.41l-1,14.12s14.27,11.3,23.1,12.83" transform="translate(-535.54 -262.46)"></path><path class="cls-3" d="M645.84,294.3v4.64s-21,14-25.44,44.17v33l47.47,1.42V358.64s5.63,3.95,11.08,5.24,9.29,2.08,22.61,10.19a6,6,0,0,0,2.13.8,14.32,14.32,0,0,0,7.18-.58,2.35,2.35,0,0,0,1-.72l2.41-3" transform="translate(-535.54 -262.46)"></path><path class="cls-3" d="M662.08,311.65a7.11,7.11,0,0,0-6.9-3.25c-5.45.75-13.54,4.05-15.37,16.89-2.18,15.26,9.94,18.67,15.59,19.43a11.13,11.13,0,0,1,5.33,2.26c4.16,3.24,12.43,9.3,17.55,10.66,7.06,1.89,16.12,7.06,25.41,12.83a34.28,34.28,0,0,0,7.76.78,6.94,6.94,0,0,0,6.81-6.23,10.71,10.71,0,0,0-.28-4.24,3.5,3.5,0,0,0-2.29-2.28,24.9,24.9,0,0,0-4.7-1.09s-12.36-12.12-21.3-14.59C689.69,342.82,669,322.41,662.08,311.65Z" transform="translate(-535.54 -262.46)"></path><line class="cls-3" x1="132.24" y1="89.65" x2="132.32" y2="96.18"></line><path class="cls-3" d="M667.33,306.85l-4.75,1.49s3.52,7,3.66,9" transform="translate(-535.54 -262.46)"></path><path class="cls-3" d="M563.5,382.44c16.44,1.08,39.11,3.72,62.25,11.44" transform="translate(-535.54 -262.46)"></path><path class="cls-3" d="M680.27,421.35a27.28,27.28,0,0,0-1.51,4.4,7.18,7.18,0,0,1-1.79,3.33,65.26,65.26,0,0,0-7,8.53h-1.11c3-11.45-7.63-22-7.63-22C668.4,419.47,680.27,421.35,680.27,421.35Z" transform="translate(-535.54 -262.46)"></path><path class="cls-3" d="M667.87,377.53a222.5,222.5,0,0,1,30.71,5.29,71.39,71.39,0,0,1,16,5.86A11.7,11.7,0,0,1,720,403a73.21,73.21,0,0,1-6.48,12.82c-.74,1.2-1.52,2.41-2.32,3.62-2.14,3.24-4.47,6.46-6.82,9.56-7,9.26-14.38,17.41-18.13,21.44a4.47,4.47,0,0,1-4.63,1.23,3.93,3.93,0,0,1-.54-.2,103.14,103.14,0,0,0-11.69-4.07,3.74,3.74,0,0,1-1.06-.52,3.4,3.4,0,0,1-1.18-3.94,27.29,27.29,0,0,1,2.85-5.28" transform="translate(-535.54 -262.46)"></path><path class="cls-3" d="M680.27,421.35a63,63,0,0,1,9.05-14s-43.24,3.09-54.27-1.85c-5.8-2.6-8.21-6.4-9.29-11.61-1-4.69-.88-10.52-1.21-17.65" transform="translate(-535.54 -262.46)"></path><path class="cls-3" d="M695.81,402.7s-4.37,2-6.5,4.65" transform="translate(-535.54 -262.46)"></path><path class="cls-3" d="M698.58,382.82s14.11-3.71,18.35-2.29S742.52,401,742.52,401s-6.76,25-29,14.76" transform="translate(-535.54 -262.46)"></path><path class="cls-3" d="M668.86,437.61h0c-3.23,0-13.17.06-27.08-.09-12.65-.13-16.75-12.38-18-18.78a31.56,31.56,0,0,1-.56-3.81c-1.33.4-2.63.76-3.88,1.08h0c-15.88,4.15-25.18,2.72-25.18,2.72-18.19-1.31-40.41-16.69-40.41-16.69-1.06-8.29-14.47-12.71-14.47-12.71L536,382.24a205.74,205.74,0,0,1,27.44.2h0c1.91.68,57.49,20.26,97.74,33.21C661.23,415.65,671.82,426.16,668.86,437.61Z" transform="translate(-535.54 -262.46)"></path><path class="cls-3" d="M615.93,422c-3.06-2.46-5.06-3.74-5.06-3.74" transform="translate(-535.54 -262.46)"></path><path class="cls-3" d="M553.69,402.06l-7.88,6v4.41l-9.76,18.23h6s15.61-18.39,25.51-20.55" transform="translate(-535.54 -262.46)"></path><path class="cls-3" d="M665.81,448.29l15.47,7.06s6.76,13.57,13.65,17.21a2.55,2.55,0,0,1-.76,4.81,9.24,9.24,0,0,1-4.07-.61c-7.58-2.59-15.41-7.59-18.88-11.82l-2.94.29-9.06-6.12S659.52,451.59,665.81,448.29Z" transform="translate(-535.54 -262.46)"></path><line class="cls-3" x1="132.75" y1="184.36" x2="130.92" y2="186.13"></line><line class="cls-3" x1="146.04" y1="189.16" x2="144.57" y2="192.36"></line><polyline class="cls-3" points="39.57 207.03 22.03 203.53 25.09 189.15 41.91 192.96"></polyline><path class="cls-3" d="M704.35,429l7.82,4.34.06,1.72h0l0,1.1a3.61,3.61,0,0,0,1.82,3c.54.31,1.17.7,1.84,1.17a18.72,18.72,0,0,1,5.59,5.87l.09.16a10.18,10.18,0,0,1-1,11.23c-2.53,3.2-6.86,8.6-10.72,13.08" transform="translate(-535.54 -262.46)"></path><path class="cls-3" d="M596.39,473.75l23.85,4.77,9.88,1.09,26,2.86h37.45a5.46,5.46,0,0,0,1.65-.25,24.19,24.19,0,0,0,8.25-4.8,44.81,44.81,0,0,0,3.71-3.77" transform="translate(-535.54 -262.46)"></path><path class="cls-3" d="M690.05,446.83l12.24,3.29a7.7,7.7,0,0,1,3.31-6.37,7.46,7.46,0,0,1,5.57-1.05,8.28,8.28,0,0,1,3.37,1.48,8.64,8.64,0,0,1,1.11,1c2,2.07,3.75,5.6,1.58,8.83a127.24,127.24,0,0,1-10.74,14" transform="translate(-535.54 -262.46)"></path><path class="cls-3" d="M700.65,473.61h0A22.18,22.18,0,0,1,695.3,477l0,0c-.25.1-.49.2-.74.28a2.34,2.34,0,0,1-.74.12h-1l-29.57,0h-6.68l-14.86-5.18-9.15-3.19-9.37-3.27h0l-12-2.72-11.31-2.56" transform="translate(-535.54 -262.46)"></path><path class="cls-3" d="M718.35,361.2s5.73-.37,10.13-.3a7,7,0,0,1,7,6.45c.15,2.28-.8,4.63-4.57,5.9,0,0-5.42,1.5-8-1.37,0,0,4.45-1.42,3.68-4.16a1.6,1.6,0,0,0-1.16-1.09c-1.07-.29-2.95-.18-4.15,3.31a17.6,17.6,0,0,1-4.44-1.32" transform="translate(-535.54 -262.46)"></path><path class="cls-3" d="M731.08,361.43l1.24-2.85a6.62,6.62,0,0,0-.62-6.4l-3.21-4.65c-5.91.44-7.15-2.74-7.15-2.74l4.82-12.26c8.07,3.62,4.54,13.24,4.54,13.24l4.06,5.27a8.28,8.28,0,0,1,1,8.39l-1,2.22,4.23,3.7,12.18-13.14,5.32,5.68a3.5,3.5,0,0,1,.92,2.83l-.86,7.19h7.59v25.86a15.28,15.28,0,0,1-3.46,0c-4.9-.63-8.48-3.64-10.87-6.58" transform="translate(-535.54 -262.46)"></path><path class="cls-3" d="M739.38,384.16l-6,3-1,.51-3.12-5.94,3.94-3.59c.41-4.53-4.12-2.88-4.12-2.88-.19.29-.39.56-.58.8a5.54,5.54,0,0,1-9.33-1,4.28,4.28,0,0,1-.32-.92l-5.24,3.41a2.74,2.74,0,0,1-3-3.1" transform="translate(-535.54 -262.46)"></path><line class="cls-3" x1="197.82" y1="124.65" x2="194.07" y2="127.41"></line><path class="cls-3" d="M731,423.89c1.43-3.75,2.4-6.48,2.4-6.48l7.3-7c2.84.24,6.61-1.37,10.12-3.42" transform="translate(-535.54 -262.46)"></path><path class="cls-3" d="M720.82,445.06c1.42-.92,3.69-5.5,5.93-10.67" transform="translate(-535.54 -262.46)"></path><path class="cls-3" d="M760.68,393.72l.37,6s-1.4,1.21-3.53,2.82" transform="translate(-535.54 -262.46)"></path><path class="cls-3" d="M715.18,416.49s3.63,15.83.75,23.81" transform="translate(-535.54 -262.46)"></path><path class="cls-3" d="M700.62,473.65l0,0h0" transform="translate(-535.54 -262.46)"></path><path class="cls-3" d="M704.68,465.91a24.18,24.18,0,0,0,.78-11.09c3.36-1.5,9.08-10.64,9.08-10.64" transform="translate(-535.54 -262.46)"></path><path class="cls-3" d="M711.17,419.38A33.19,33.19,0,0,1,712.22,435" transform="translate(-535.54 -262.46)"></path><path class="cls-3" d="M700.12,467.53a17.48,17.48,0,0,1-4.48,5.57" transform="translate(-535.54 -262.46)"></path><path class="cls-3" d="M701.81,462.6a22.2,22.2,0,0,0,0-8.75c3.7-1.32,9.41-11.15,9.41-11.15" transform="translate(-535.54 -262.46)"></path><line class="cls-3" x1="87.57" y1="199.98" x2="75.6" y2="200.59"></line><polyline class="cls-3" points="97.15 199.49 122.62 198.18 123.68 196.65"></polyline><path class="cls-3" d="M632.75,464.79l23.47-.5s-2.47,4.47-4.5,4.65l-19.21.1" transform="translate(-535.54 -262.46)"></path><path class="cls-3" d="M641.65,472.23l17.22-1.17s.71,5.64,4.32,6.35" transform="translate(-535.54 -262.46)"></path><line class="cls-3" x1="239.09" y1="192.35" x2="239.07" y2="192.31"></line><path class="cls-4" d="M796.92,464.29a13.19,13.19,0,1,1-22.31-9.51l-10-20.13L760.26,426l-9.47-19-11.41-22.86,6.66-3.28a26,26,0,0,0,3.75,6.23v0l7.72,15.36,9.9,19.73,4.32,8.61L782,451.23a12.76,12.76,0,0,1,1.75-.12A13.18,13.18,0,0,1,796.92,464.29Z" transform="translate(-535.54 -262.46)"></path><path class="cls-4" d="M596.39,473.75a13.18,13.18,0,0,1-21.28-4.25Z" transform="translate(-535.54 -262.46)"></path><line class="cls-3" x1="60.84" y1="211.28" x2="39.57" y2="207.03"></line><polyline class="cls-3" points="41.91 192.96 59.16 196.87 64.29 198.03"></polyline><path class="cls-3" d="M710.27,470.88a9.86,9.86,0,0,0,3.3,1.7,2.47,2.47,0,0,0,1.9-.37,3.73,3.73,0,0,0,1.36-1.58c2.37-4.86,18.74-38.69,18.71-41.68,0-1.61-.72-2-1.42-2a2.23,2.23,0,0,0-1.84,1.08L728,434.79l-1.12-.4a56.18,56.18,0,0,1-5.93-2.64c-.67-3,2-3.41,2-3.41s2.86,1.48,3.74,1.07c.52-.24,2.08-3.4,4.39-5.51h0c1.55-1.41,3.45-2.36,5.61-1.6,5.35,1.89,1.44,9.06,1.44,9.06l-18,40.95a6.77,6.77,0,0,1-9.48,3.19l-3.4-1.84c.82-.92,1.72-1.93,2.64-3" transform="translate(-535.54 -262.46)"></path><path class="cls-3" d="M709.87,470.65" transform="translate(-535.54 -262.46)"></path><path class="cls-3" d="M706.48,468a51.7,51.7,0,0,1-5.83,5.61,23.48,23.48,0,0,0,2.2-3.35c-.59-.57-1.59-1.55-2.74-2.73-3.19-3.35-7.41-8.3-6.13-9.93a1.94,1.94,0,0,1,2.25-.63,3.59,3.59,0,0,1,1.67,1.12l3.9,4.51,2.87,3.31Z" transform="translate(-535.54 -262.46)"></path><path class="cls-3" d="M703.41,470.79l-.56-.53" transform="translate(-535.54 -262.46)"></path><path class="cls-2" d="M668.84,437.62C659,441,657.11,458,657.11,458l-14.65-.71c-5.36-14.44-15.25-25.34-22.54-31.9l3.81-6.64c1.28,6.4,5.38,18.65,18,18.78C655.67,437.68,665.61,437.64,668.84,437.62Z" transform="translate(-535.54 -262.46)"></path><path class="cls-5" d="M623.73,418.75l-3.81,6.64-2.68,4.68-4.88,8.54L599.84,460.5l-5.13-1.16-17.25-3.91a13.18,13.18,0,0,1,19.49,0l11.44-20.16,4.76-8.39,2.77-4.88,3.37-5.94h0c1.25-.32,2.55-.68,3.88-1.08A31.56,31.56,0,0,0,623.73,418.75Z" transform="translate(-535.54 -262.46)"></path><path class="cls-3" d="M653.16,408.15s.9,3.68,8.07,7.5" transform="translate(-535.54 -262.46)"></path><path class="cls-3" d="M625.92,394.61" transform="translate(-535.54 -262.46)"></path><polygon class="cls-2" points="74.8 155.48 80.38 159.5 83.75 153.55 74.8 155.48"></polygon><polygon class="cls-2" points="32.43 121.55 80.09 138.02 97.21 143.81 125.28 153.05 121.39 150.39 117.61 145.68 102.5 144.18 97.99 142.29 92.64 137.58 89.35 131.13 64.46 124.65 36.59 119.97 32.43 121.55"></polygon><polygon class="cls-2" points="126.41 153.55 138.58 157.63 144.72 158.88 143.13 163.57 141.85 166.12 137.6 170.89 134.15 175.17 133.4 174.83 133.84 170.95 133.29 165.65 131.13 160.84 127.29 155 126.41 153.55"></polygon><polygon class="cls-2" points="174.41 112.12 175.32 114.42 177.2 115 178.72 114.58 183.27 111.89 185 114.12 187.14 115.52 189.79 115.52 191.97 114.46 194.07 112.6 196.63 112.88 197.82 114.77 196.77 116.37 193.62 119.24 196.74 125.18 204.39 121.42 210.38 119 213.25 123.32 217.21 127.41 221.13 130.14 224.54 131.16 228.85 131.38 228.59 119.24 228.59 105.44 221.32 105.44 221.97 97.89 221.44 96.12 215.46 89.92 203.23 102.7 199.35 99.31 200.34 96.62 200.86 94.52 200.56 91.2 198.3 87.39 195.15 83.3 195.83 80.17 195.85 77.33 195.28 74.86 193.39 71.94 190.61 70.06 189.38 73.45 187.14 78.89 185.79 82.32 187.79 84.24 190.61 85.04 192.94 85.06 196.47 90.23 197.31 93.36 196.78 96.1 195.53 98.96 197.77 100.38 199.38 103.53 199.88 106.27 198.91 108.5 197.54 109.75 196.32 110.77 194.32 111.18 191.74 111.18 189.04 110.61 187.75 109.81 187.34 109.42 188.79 109.24 189.69 108.2 190.82 106.96 191.09 105.66 189.86 104.17 188.97 104.07 186.94 105.16 185.92 106.91 185.79 107.71 183.33 106.95 181.06 106.39 178.72 108.14 177.62 109.5 176.75 110.56 175.46 111.77 174.41 112.12"></polygon><polygon class="cls-2" points="77.85 200.59 87.57 199.98 87.57 202.76 77.85 200.59"></polygon><polygon class="cls-2" points="96.96 199.49 106.92 198.99 121.52 198.24 124.07 196.92 132.81 202.76 135.56 202.49 138.22 205.06 143.68 209.07 152.51 213.54 154.97 214.43 153.26 214.94 145.68 214.95 126.65 214.59 125.21 213.53 124.25 211.77 123.32 208.59 106.37 209.86 97.68 206.49 114.69 206.48 116.88 206.49 119.57 203.56 120.21 201.82 96.96 202.3 96.96 199.49"></polygon><polygon class="cls-2" points="144.91 192.51 145.74 189.16 148.38 189.25 151.22 187.33 153.93 184.36 166.56 187.33 168.8 182.32 172.34 180.23 175.62 180.09 173.97 183.67 167.3 190.46 166.21 191.38 166.21 199.37 166.26 200.13 163.47 196.92 160.69 194.5 158.44 195.13 158.2 196.64 161.06 201.09 164.1 204.57 164.09 205.53 162.33 208.18 160.43 210.63 158.56 209.61 157.63 208.97 152.77 204 148.64 198.03 145.56 192.58 144.91 192.51"></polygon><polygon class="cls-2" points="179.9 154.13 183.76 155.29 189.99 155.65 193.86 154.7 197.68 152.6 200.31 150.29 203.05 146.86 206.97 138.53 201.34 133.59 194.33 127.63 197.38 125.18 203.83 121.59 208.09 126.59 213.09 136.75 215.24 140.77 215.85 142.95 214.91 144.55 210.33 146.97 205.33 147.98 198.05 154.72 196.38 158.88 195.42 161.12 192.47 165.01 190.56 167.01 188.44 165.93 187.29 165.87 186.15 165.93 185.27 167.59 185.27 169.28 186.32 170.3 191.2 171.92 188.89 176.97 185.27 182.59 182.76 179.76 179.9 177.84 180.93 175.91 181.39 172.56 181.49 168.77 181.06 162.73 180.56 156.92 179.9 154.13"></polygon><polygon class="cls-2" points="178.8 182.01 175.27 187.05 170.4 192.09 169.91 192.35 170.22 196.18 169.63 201.52 169.13 202.76 170.53 205.06 172.39 203.9 176.39 198.65 178.99 194.89 181.49 191.81 182.67 189.36 182.67 186.71 180.56 183.23 178.8 182.01"></polygon><polygon class="cls-2" points="225.5 131.38 225.5 136.75 222.36 139.74 218.38 136.24 213.97 126.83 216.91 126.03 223.74 129.3 225.5 131.38"></polygon><path class="cls-2" d="M615.21,323.17s34.45-25.31,48.67-12.13l2.94,7c-12.19-22.52-51.61,8.3-51.61,8.3" transform="translate(-535.54 -262.46)"></path><path class="cls-2" d="M657.52,345.23s-14.34,10.3-42.14,3.83l0,3.05c30.65,6.35,44.58-5.66,44.58-5.66Z" transform="translate(-535.54 -262.46)"></path><path class="cls-2" d="M608.92,312.09H545.8a6.22,6.22,0,0,0-6.22,6.23v59.61a6.22,6.22,0,0,0,6.22,6.23h63.56a6.24,6.24,0,0,0,6.23-6.28l-.44-59.6A6.24,6.24,0,0,0,608.92,312.09ZM576,339.78a2.05,2.05,0,0,1,.1-.55c.28-.75.61-1.5,1.52-1.61a2.5,2.5,0,0,1,2.41,1.15,1.46,1.46,0,0,1,.22,1.08,2.82,2.82,0,0,1-1.23,2.23,2,2,0,0,1-2.21-.29A2,2,0,0,1,576,339.78Zm-17.64,6.77A49,49,0,0,1,560.53,336c.35-1.15.83-2.27,1.25-3.4A.9.9,0,0,1,563,332a6,6,0,0,1,2.48,1.16c-.61,1.67-1.25,3.27-1.79,4.91s-.93,3.26-1.42,5c1.23-2.27,2.35-4.46,3.58-6.58.67-1.13,1.52-2.15,2.29-3.21a1,1,0,0,1,1.36-.33c.72.43,1.42.9,2.1,1.39.32.22.33.5.16.9A45.85,45.85,0,0,0,568.34,346c0,.16,0,.33-.06.5a41.14,41.14,0,0,1,6.12-5.5,2,2,0,0,1,.23-.14,2.82,2.82,0,0,0,1.17,1.89,33.9,33.9,0,0,0-5.38,5.19c-.35.4-.71.88-1.06,1.32a2.37,2.37,0,0,1-.26.33h0l-.09.08c-.37.31-.77.28-1.4,0a11.78,11.78,0,0,1-2-1.24,2,2,0,0,1-.76-1.94,38.68,38.68,0,0,1,1.62-6.8c.06-.2.13-.4.2-.6a54.32,54.32,0,0,0-5.45,12,4.46,4.46,0,0,1-2.29-1.8A3.54,3.54,0,0,1,558.38,346.55Zm-2.48,15.86a2.2,2.2,0,0,1-1.23-.44,4.17,4.17,0,0,1-1.7-2.43,1.67,1.67,0,0,1,.27-1.31.73.73,0,0,1,.58-.3h0a5.54,5.54,0,0,0,1.48-.64l.21-.12a96.89,96.89,0,0,1,13.2-6.19,82.23,82.23,0,0,1,15-4.21c.29-1.52.66-3.23.89-4.08.5-1.86,1-3.7,1.65-5.52,0-.05.54-1.72,1.07-3.34a39.48,39.48,0,0,1-5.57,5.3,1.07,1.07,0,0,1-.37.21,2.16,2.16,0,0,0-.38-1.39,5.7,5.7,0,0,0-.54-.64,34.26,34.26,0,0,0,5-5.26c.34-.4.69-.9,1-1.35a2.36,2.36,0,0,1,.25-.33h0a.3.3,0,0,1,.08-.08c.36-.33.76-.32,1.41,0,.27.12,2.27,1.44,2.4,1.54.76.53.77.58.43,1.35a62.12,62.12,0,0,0-2.35,6.63c-.68,2.16-1.29,4.33-1.82,6.53a56.37,56.37,0,0,1,7-.47c.55,0,1.1,0,1.63,0a2.32,2.32,0,0,1,1.29.63c.78.66.78,1.11.77,1.25a.88.88,0,0,1-.94.87h-.15a6,6,0,0,0-.71,0A47.19,47.19,0,0,0,584,350.52a115.54,115.54,0,0,0-25.53,10.87A5.73,5.73,0,0,1,555.9,362.41Zm13,1.33a3.68,3.68,0,0,1-1.59,2.07,2.42,2.42,0,0,1-1.09.38,2.53,2.53,0,0,1-2.59-1.86,4,4,0,0,1-.1-2.54A3.25,3.25,0,0,1,565,359.9a3,3,0,0,1,1.27-.38,1.17,1.17,0,0,1,1.28.72l.3.78-1.08.61-.25-.65s-.11-.09-.32-.07a1.74,1.74,0,0,0-1.53,1.27,2.39,2.39,0,0,0,.07,1.49,1.56,1.56,0,0,0,1.53,1.13,1.28,1.28,0,0,0,.58-.19,2.32,2.32,0,0,0,1-1.27l.13-.49,1,.56Zm4.51-1.35-.79-2.21-1.92.94.79,2.25-1.12.58-1.58-4.55-.42.21-.41-1.21.81-.4a.79.79,0,0,1,.34-.09c.22,0,.51.08.67.56l.51,1.47,1.92-.93-.5-1.45a.94.94,0,0,1,0-.68.86.86,0,0,1,.46-.46l.83-.37.41,1.17-.42.19,1.56,4.43Zm2.29-1.08-.37-1.15.43-.19-1.06-3.29-.43.18-.37-1.18,2-.8.37,1.16-.44.18,1.05,3.26.43-.18.37,1.13Zm7.2-3.78a3.31,3.31,0,0,1-1.8,1.64,3.23,3.23,0,0,1-.85.18,2.46,2.46,0,0,1-1.65-.51,3,3,0,0,1-1-1.54,3.25,3.25,0,0,1,.18-2.3,2.82,2.82,0,0,1,1.65-1.47,4,4,0,0,1,1-.17c.8,0,1.32.3,1.48.84l.22.75-1.14.39-.18-.62s-.14-.12-.47-.12a2.13,2.13,0,0,0-.57.1,1.55,1.55,0,0,0-.92.82,1.92,1.92,0,0,0-.09,1.34,1.6,1.6,0,0,0,1.54,1.25,1.8,1.8,0,0,0,.45-.09,2.05,2.05,0,0,0,1.1-1l.18-.42,1,.65Zm4.71-.6a2.07,2.07,0,0,1-.43.09.83.83,0,0,1-.68-.33l-1.26-1.41-.13,0-.16,0,.55,2.22-1.17.36-1.07-4.28-.43.12-.28-1.13.85-.23a.93.93,0,0,1,.27,0,.68.68,0,0,1,.69.59l.31,1.28.21-.06.1,0,.74-2.36,1.38-.35-.94,2.88,0,.11.08.09,1.19,1.31h0l.49-.14.27,1.07Zm4.93-1.43a.88.88,0,0,1-.53.32l-2.07.5-.23,0a.64.64,0,0,1-.69-.58l-.71-3.43-.44.09-.23-1.1,3.11-.62a.69.69,0,0,1,.24,0,.67.67,0,0,1,.69.6l.16.78-1.17.24-.09-.45-1.07.23.2,1,1.8-.38.22,1.06-1.8.4.21,1,1.26-.29-.09-.44,1.16-.26.16.77A.71.71,0,0,1,592.5,355.5Zm4.79-.71-2.72-2.5.33,2.19a.7.7,0,0,1-.13.56.89.89,0,0,1-.54.29l-.87.16-.16-1.06.44-.07L593,350.3l1-.14,2.74,2.57-.33-2.17a.69.69,0,0,1,.13-.55.81.81,0,0,1,.55-.25l.88-.11.15,1-.45.06.59,3.89Z" transform="translate(-535.54 -262.46)"></path></svg>